# xmcd
#
# Track frame offsets: 
#        150
#        16845
#        39377
#        57462
#        76705
#        90852
#        113762
#        137065
#        153597
#        170235
#        197695
#        213477
#        234987
#
# Disc length: 3513 seconds
#
# Revision: 1
# Processed by: cddbd v1.5.2PL0 Copyright (c) Steve Scherf et al.
# Submitted via: ExactAudioCopy v0.99pb5
#
DISCID=a00db70d
DTITLE=Various Artist - Jazz&Ôzáz - Blues Blasters
DYEAR=2004
DGENRE=Blues
TTITLE0=David Gogo - Louisiane Blues
TTITLE1=Larry McRay - Blues Is My Business
TTITLE2=Rod and the Shotgun Blues - Side Tracked
TTITLE3=Popa Chubby - Bad Connection
TTITLE4=Gashouse Dave - La Blonde Bomb
TTITLE5=Tom Principato - Kansas City Blues (Joe Turner Medley)
TTITLE6=Tino Gonzales - Young Thing
TTITLE7=The Dusters - She May Be Yours
TTITLE8=Matt Smith - Tough Guy
TTITLE9=Jimmy Thackery - Still Raining, Still Dreaming
TTITLE10=George Hamilton V - Can't Tell Ya Why
TTITLE11=Van Wilks - Blues For Delphine
TTITLE12=Popa Chubby - Hey Joe
EXTD=From Jazz and Tzaz magazine March 2004
EXTT0=
EXTT1=
EXTT2=
EXTT3=
EXTT4=
EXTT5=
EXTT6=
EXTT7=
EXTT8=
EXTT9=
EXTT10=
EXTT11=
EXTT12=
PLAYORDER=
